<svg width="34" height="36" viewBox="0 0 34 36" fill="none" xmlns="http://www.w3.org/2000/svg">
<path d="M7.16667 31.0862V19.0157H10.8933C11.057 19.0157 11.226 19.0324 11.4004 19.0659C11.5748 19.0993 11.7438 19.1459 11.9074 19.2056L22.6933 23.1652C23.2272 23.3599 23.6673 23.68 24.0137 24.1255C24.3601 24.5711 24.5327 25.0721 24.5315 25.6288C24.5315 25.9572 24.424 26.2236 24.209 26.4278C23.994 26.6321 23.7294 26.7336 23.4153 26.7324H21.2617C20.6525 26.7324 20.0583 26.6966 19.479 26.6249C18.8997 26.5533 18.3317 26.4183 17.7751 26.22L14.5627 25.0662L14.0503 26.3992L17.5673 27.6085C18.1323 27.7997 18.7157 27.931 19.3178 28.0027C19.9198 28.0744 20.5295 28.1108 21.147 28.112H30.3885C31.2067 28.112 31.9054 28.3808 32.4847 28.9183C33.064 29.4558 33.3531 30.1288 33.3519 30.9375L20.821 35.0726L7.16667 31.0862ZM0 33.625V19.0157H5.375V33.625H0ZM20.9822 11.1252H22.4299V9.67934H20.9822V11.1252ZM17.3989 11.1252H18.8465V9.67934H17.3989V11.1252ZM20.9822 14.7085H22.4299V13.2627H20.9822V14.7085ZM17.3989 14.7085H18.8465V13.2627H17.3989V14.7085ZM25.8502 22.4611C25.5707 21.7516 25.1227 21.1155 24.5064 20.553C23.8901 19.9904 23.0725 19.5228 22.0536 19.1501L10.0602 14.7426H8.26854V9.05942L19.9144 0.756836L31.5602 9.05763V22.4611H25.8502Z" fill="#92C800"/>
</svg>
